Ten years after the war, West Germany's market economy is booming. Into an unnamed city that's rife with corruption comes a new building commissioner, Herr von Bohm, committed to progress but also upright. He's smitten by Marie-Louise, a single mother who's his landlady's daughter. Von Bohm does not realize she is also Lola, a singer at a bordello and the mistress of Schuckert, a local builder whose profits depend on von Bohm's projects. When von Bohm discovers Marie-Louise's real vocation and looks closely at Schuckert's work, will this social satire play out as a remake of "Blue Angel," a visit of Chekhov to West Germany, or an update of Jean Renoir's "Rules of the Game"?

Third film of the BRD Trilogy, although it was released before Veronika Voss.
Rip by likeatree (sdbits.org), whom we thank.

Lola.1981.NTSC.DVD.x264-Tree.mkv
Format : Matroska
Format version : Version 2
File size : 1.45 GiB
Duration : 1h 55mn
Overall bit rate : 1 809 Kbps
Encoded date : UTC 2010-09-19 15:59:01
Writing application : mkvmerge v4.3.0 ('Escape from the Island') built on Sep 5 2010 10:30:51
Writing library : libebml v1.0.0 + libmatroska v1.0.0

Video
ID : 1
Format : AVC
Format/Info : Advanced Video Codec
Format profile : High@L4.0
Format settings, CABAC : Yes
Format settings, ReFrames : 16 frames
Muxing mode : Header stripping
Codec ID : V_MPEG4/ISO/AVC
Duration : 1h 55mn
Nominal bit rate : 1 567 Kbps
Width : 704 pixels
Height : 480 pixels
Display aspect ratio : 1.738
Frame rate mode : Constant
Frame rate : 23.976 fps
Standard : NTSC
Color space : YUV
Chroma subsampling : 4:2:0
Bit depth : 8 bits
Scan type : Progressive
Bits/(Pixel*Frame) : 0.193
Title : Video Track
Writing library : x264 core 98 r1649 20cbe10
Encoding settings : cabac=1 / ref=16 / deblock=1:-2:-2 / analyse=0x3:0x133 / me=tesa / subme=10 / psy=1 / psy_rd=1.15:0.05 / mixed_ref=1 / me_range=24 / chroma_me=1 / trellis=2 / 8x8dct=1 / cqm=0 / deadzone=21,11 / fast_pskip=1 / chroma_qp_offset=-3 / threads=12 / sliced_threads=0 / nr=0 / decimate=1 / interlaced=0 / constrained_intra=0 / bframes=8 / b_pyramid=2 / b_adapt=2 / b_bias=0 / direct=3 / weightb=1 / weightp=2 / keyint=250 / keyint_min=25 / scenecut=40 / intra_refresh=0 / rc_lookahead=60 / rc=2pass / mbtree=1 / bitrate=1567 / ratetol=1.0 / qcomp=0.60 / qpmin=10 / qpmax=51 / qpstep=4 / cplxblur=20.0 / qblur=0.5 / ip_ratio=1.40 / aq=1:1.00
Language : German
Default : Yes
Forced : No

Audio #1
ID : 2
Format : AC-3
Format/Info : Audio Coding 3
Mode extension : CM (complete main)
Format settings, Endianness : Big
Muxing mode : Header stripping
Codec ID : A_AC3
Duration : 1h 55mn
Bit rate mode : Constant
Bit rate : 192 Kbps
Channel(s) : 1 channel
Channel positions : Front: C
Sampling rate : 48.0 KHz
Bit depth : 16 bits
Compression mode : Lossy
Stream size : 158 MiB (11%)
Title : Audio Track
Language : German
Default : Yes
Forced : No

Audio #2
ID : 3
Format : AAC
Format/Info : Advanced Audio Codec
Format profile : LC
Codec ID : A_AAC
Duration : 1h 55mn
Channel(s) : 1 channel
Channel positions : Front: C
Sampling rate : 48.0 KHz
Compression mode : Lossy
Title : Commentary Track
Language : English
Default : No
Forced : No

Text
ID : 4
Format : UTF-8
Codec ID : S_TEXT/UTF8
Codec ID/Info : UTF-8 Plain Text
Title : Subtitle Track
Language : English
Default : Yes
Forced : No

Barbara.Sukowa.Interview.NTSC.DVD.x264-Tree.mkv
Format : Matroska
Format version : Version 2
File size : 150 MiB
Duration : 19mn 45s
Overall bit rate : 1 059 Kbps
Encoded date : UTC 2010-09-19 16:08:11
Writing application : mkvmerge v4.3.0 ('Escape from the Island') built on Sep 5 2010 10:30:51
Writing library : libebml v1.0.0 + libmatroska v1.0.0

Video
ID : 1
Format : AVC
Format/Info : Advanced Video Codec
Format profile : High@L4.0
Format settings, CABAC : Yes
Format settings, ReFrames : 16 frames
Muxing mode : Header stripping
Codec ID : V_MPEG4/ISO/AVC
Bit rate : 865 Kbps
Width : 704 pixels
Height : 480 pixels
Display aspect ratio : 1.738
Frame rate mode : Variable
Original frame rate : 25.000 fps
Standard : NTSC
Color space : YUV
Chroma subsampling : 4:2:0
Bit depth : 8 bits
Scan type : Progressive
Bits/(Pixel*Frame) : 0.102
Title : Video Track
Writing library : x264 core 98 r1649 20cbe10
Encoding settings : cabac=1 / ref=16 / deblock=1:-2:-2 / analyse=0x3:0x133 / me=tesa / subme=10 / psy=1 / psy_rd=1.15:0.05 / mixed_ref=1 / me_range=24 / chroma_me=1 / trellis=2 / 8x8dct=1 / cqm=0 / deadzone=21,11 / fast_pskip=1 / chroma_qp_offset=-3 / threads=12 / sliced_threads=0 / nr=0 / decimate=1 / interlaced=0 / constrained_intra=0 / bframes=8 / b_pyramid=2 / b_adapt=2 / b_bias=0 / direct=3 / weightb=1 / weightp=2 / keyint=250 / keyint_min=25 / scenecut=40 / intra_refresh=0 / rc_lookahead=60 / rc=2pass / mbtree=1 / bitrate=865 / ratetol=1.0 / qcomp=0.60 / qpmin=10 / qpmax=51 / qpstep=4 / cplxblur=20.0 / qblur=0.5 / ip_ratio=1.40 / aq=1:1.00
Language : German
Default : Yes
Forced : No

Audio
ID : 2
Format : AC-3
Format/Info : Audio Coding 3
Mode extension : CM (complete main)
Format settings, Endianness : Big
Muxing mode : Header stripping
Codec ID : A_AC3
Duration : 19mn 45s
Bit rate mode : Constant
Bit rate : 192 Kbps
Channel(s) : 1 channel
Channel positions : Front: C
Sampling rate : 48.0 KHz
Bit depth : 16 bits
Compression mode : Lossy
Delay relative to video : 60ms
Stream size : 27.1 MiB (18%)
Title : Audio Track
Language : German
Default : Yes
Forced : No

Text
ID : 3
Format : UTF-8
Codec ID : S_TEXT/UTF8
Codec ID/Info : UTF-8 Plain Text
Title : Subtitle Track
Language : English
Default : Yes
Forced : No

Peter.Marthesheimer.Interview.NTSC.DVD.x264-Tree.mkv
Format : Matroska
Format version : Version 2
File size : 249 MiB
Duration : 33mn 9s
Overall bit rate : 1 051 Kbps
Encoded date : UTC 2010-09-19 16:05:50
Writing application : mkvmerge v4.3.0 ('Escape from the Island') built on Sep 5 2010 10:30:51
Writing library : libebml v1.0.0 + libmatroska v1.0.0